<svg width="50" height="50" viewBox="0 0 50 50" fill="none" xmlns="http://www.w3.org/2000/svg">
<path d="M20.8337 37.4998H25.0003V29.1665H29.167V24.9998H25.0003V16.6665H20.8337V12.4998H16.667V8.33317H8.33366V12.4998H12.5003V24.9998H16.667V29.1665H20.8337V37.4998ZM20.8337 49.9998H25.0003V41.6665H16.667V37.4998H12.5003V33.3332H4.16699V37.4998H8.33366V41.6665H12.5003V45.8332H20.8337V49.9998ZM29.167 41.6665H37.5003V37.4998H41.667V33.3332H33.3337V37.4998H29.167V41.6665ZM16.667 8.33317H20.8337V4.1665H16.667V8.33317ZM20.8337 12.4998H25.0003V8.33317H20.8337V12.4998ZM29.167 24.9998H33.3337V12.4998H37.5003V8.33317H29.167V12.4998H25.0003V16.6665H29.167V24.9998ZM25.0003 8.33317H29.167V4.1665H25.0003V8.33317Z" fill="#FA6C5E"/>
</svg>
